<svg width="297" height="41" viewBox="0 0 297 41" fill="none" xmlns="http://www.w3.org/2000/svg">
<path d="M17.2852 36.4806C12.0352 36.4713 8.03252 35.1742 5.27706 32.5893C2.52159 30.0044 1.148 26.357 1.15628 21.647C1.16483 16.787 2.52137 13.0694 5.2259 10.4942C7.93048 7.88894 11.9528 6.59107 17.2928 6.60053C19.0928 6.60372 20.6975 6.74156 22.107 7.01406C23.5166 7.28655 24.8659 7.66395 26.1551 8.14623L26.1421 15.5262C23.5641 14.3817 20.8051 13.8068 17.8651 13.8016C15.1351 13.7967 13.109 14.4231 11.7868 15.6808C10.4646 16.9084 9.80112 18.9023 9.79627 21.6623C9.79152 24.3623 10.4781 26.3135 11.856 27.5159C13.2639 28.6884 15.2879 29.277 17.9279 29.2817C19.3679 29.2842 20.7631 29.1517 22.1136 28.8841C23.4941 28.6165 24.8598 28.199 26.2108 27.6314L26.1978 35.0563C24.907 35.5041 23.5414 35.8466 22.1009 36.0841C20.6905 36.3516 19.0852 36.4838 17.2852 36.4806ZM35.215 36.0623L28.5159 7.07041L36.7959 7.08508L40.0539 22.4359L43.2682 11.4616L43.2759 7.09656L50.2059 7.10883L54.5888 22.5066L58.0809 7.12278L66.3609 7.13745L59.6049 36.1055L51.955 36.092L47.6163 21.0993L42.865 36.0759L35.215 36.0623Z" fill="#F5F5F5"/>
<path d="M80.841 36.1432L80.892 7.1632L93.807 7.18608C96.027 7.19001 97.8562 7.61325 99.2947 8.4558C100.733 9.29835 101.796 10.4552 102.484 11.9265C103.171 13.3677 103.513 15.0183 103.51 16.8783C103.505 19.7583 102.601 22.0667 100.798 23.8035C99.0247 25.5404 96.6232 26.4061 93.5932 26.4007L85.7632 26.3869L85.746 36.1518L80.841 36.1432ZM85.77 22.5169L92.7 22.5291C94.65 22.5326 96.1209 22.0252 97.1127 21.007C98.1045 19.9887 98.6019 18.6096 98.605 16.8696C98.6082 15.0096 98.1308 13.5687 97.1726 12.5471C96.2443 11.5254 94.8352 11.0129 92.9453 11.0096L85.7903 10.9969L85.77 22.5169ZM107.384 36.1902L107.435 7.21022L112.34 7.21891L112.296 32.4189L127.146 32.4452L127.139 36.2252L107.384 36.1902ZM130.172 36.2305L141.292 7.2702L146.782 7.27993L157.711 36.2793L152.671 36.2704L149.805 28.7953L138.15 28.7747L135.257 36.2396L130.172 36.2305ZM138.921 24.996L149.001 25.0139L143.985 11.73L138.921 24.996ZM166.227 36.2944L166.271 11.1395L157.001 11.123L157.008 7.29804L180.408 7.33949L180.401 11.1645L171.176 11.1481L171.132 36.3031L166.227 36.2944ZM184.288 36.3264L184.339 7.34646L204.049 7.38137L204.042 11.2064L189.237 11.1801L189.222 19.9551L202.362 19.9784L202.355 23.7584L189.215 23.7351L189.193 36.3351L184.288 36.3264ZM220.711 36.8409C216.121 36.8328 212.688 35.6267 210.412 33.2227C208.137 30.7887 207.003 27.0366 207.012 21.9666C207.021 16.6867 208.168 12.8637 210.452 10.4977C212.736 8.13176 216.173 6.95285 220.763 6.96098C225.383 6.96917 228.816 8.16025 231.062 10.5342C233.338 12.9083 234.471 16.7353 234.462 22.0153C234.453 27.0853 233.307 30.8332 231.022 33.2592C228.768 35.6552 225.331 36.8491 220.711 36.8409ZM220.718 32.7009C223.748 32.7063 225.97 31.8852 227.383 30.2377C228.826 28.5603 229.55 25.8166 229.557 22.0066C229.564 17.9866 228.849 15.1803 227.412 13.5878C226.005 11.9653 223.786 11.1513 220.756 11.146C217.756 11.1407 215.535 11.9467 214.092 13.5642C212.679 15.1517 211.969 17.9554 211.962 21.9754C211.955 25.7854 212.656 28.5317 214.063 30.2141C215.5 31.8667 217.718 32.6956 220.718 32.7009ZM239.22 36.4237L239.271 7.44377L252.591 7.46736C255.831 7.4731 258.184 8.31728 259.651 9.99988C261.148 11.6525 261.894 13.9039 261.889 16.7539C261.886 18.7939 261.373 20.5329 260.35 21.9711C259.328 23.4093 257.856 24.4117 255.935 24.9783C256.474 25.3693 256.893 25.79 257.193 26.2405C257.492 26.6911 257.791 27.2916 258.089 28.0421L261.72 36.4636L256.68 36.4547L253.139 28.3484C252.81 27.5678 252.406 27.0121 251.927 26.6812C251.477 26.3504 250.698 26.184 249.588 26.1821L244.143 26.1724L244.125 36.4324L239.22 36.4237ZM244.15 22.2124L251.26 22.225C253.03 22.2282 254.425 21.7956 255.447 20.9274C256.469 20.0593 256.981 18.6652 256.984 16.7452C256.991 13.1152 255.239 11.2971 251.729 11.2908L244.169 11.2775L244.15 22.2124ZM266.685 36.4724L266.736 7.49242L271.776 7.50135L280.923 26.2826L290.091 7.5338L295.131 7.54273L295.08 36.5227L290.22 36.5141L290.257 15.4991L282.399 31.5052L279.429 31.4999L271.582 15.466L271.545 36.481L266.685 36.4724Z" fill="#F5F5F5"/>
</svg>
