<svg width="401" height="46" viewBox="0 0 401 46" fill="none" xmlns="http://www.w3.org/2000/svg">
<path d="M26.033 44.1455C19.033 44.1331 13.696 42.4037 10.0221 38.9572C6.34817 35.5107 4.51675 30.6475 4.52783 24.3675C4.53926 17.8875 6.34801 12.9307 9.95408 9.49705C13.5602 6.0234 18.9233 4.29287 26.0433 4.30543C28.4433 4.30967 30.5829 4.49344 32.4623 4.85676C34.3417 5.22008 36.1408 5.72325 37.8596 6.36629L37.8423 16.2063C34.405 14.6802 30.7263 13.9137 26.8063 13.9068C23.1663 13.9004 20.4649 14.7356 18.7019 16.4125C16.939 18.0494 16.0543 20.7078 16.0478 24.3878C16.0415 27.9878 16.9569 30.5894 18.794 32.1927C20.6713 33.756 23.3699 34.5408 26.8899 34.547C28.8099 34.5504 30.6702 34.3736 32.4708 34.0168C34.3115 33.6601 36.1325 33.1033 37.9338 32.3465L37.9163 42.2464C36.1953 42.8434 34.3745 43.3002 32.4539 43.6168C30.5733 43.9735 28.433 44.1497 26.033 44.1455ZM49.9393 43.5877L41.0075 4.93184L52.0475 4.95132L56.3914 25.419L60.6772 10.7866L60.6875 4.96657L69.9275 4.98287L75.7712 25.5132L80.4274 5.0014L91.4674 5.02088L82.4592 43.6451L72.2593 43.6271L66.4745 23.6368L60.1393 43.6057L49.9393 43.5877Z" fill="#F5F5F5"/>
<path d="M106.774 43.6882L106.842 5.0483L124.062 5.07869C127.022 5.08392 129.461 5.64822 131.379 6.77161C133.297 7.895 134.715 9.4375 135.631 11.3991C136.548 13.3207 137.004 15.5215 136.999 18.0015C136.993 21.8415 135.787 24.9194 133.383 27.2352C131.019 29.551 127.817 30.7054 123.777 30.6982L113.337 30.6798L113.314 43.6998L106.774 43.6882ZM113.346 25.5198L122.586 25.5361C125.186 25.5407 127.147 24.8642 128.47 23.5065C129.792 22.1488 130.455 20.31 130.459 17.99C130.464 15.51 129.827 13.5889 128.55 12.2266C127.312 10.8644 125.433 10.1811 122.913 10.1767L113.373 10.1598L113.346 25.5198ZM142.165 43.7507L142.233 5.11076L148.773 5.1223L148.714 38.7223L168.513 38.7572L168.505 43.7972L142.165 43.7507ZM172.548 43.8043L187.376 5.19042L194.696 5.20334L209.268 43.8691L202.548 43.8573L198.726 33.8905L183.186 33.8631L179.328 43.8163L172.548 43.8043ZM184.214 28.8249L197.654 28.8486L190.966 11.1368L184.214 28.8249ZM220.622 43.8892L220.681 10.3492L208.321 10.3274L208.33 5.2274L239.53 5.28246L239.521 10.3825L227.221 10.3607L227.162 43.9007L220.622 43.8892ZM244.704 43.9317L244.772 5.29171L271.052 5.33809L271.043 10.4381L251.303 10.4032L251.282 22.1032L268.802 22.1341L268.793 27.1741L251.273 27.1432L251.244 43.9432L244.704 43.9317ZM293.267 44.6174C287.147 44.6066 282.57 42.9985 279.536 39.7931C276.501 36.5478 274.99 31.5451 275.002 24.7851C275.015 17.7451 276.544 12.6478 279.589 9.49316C282.635 6.33853 287.218 4.76661 293.338 4.77741C299.498 4.78828 304.075 6.37636 307.069 9.54165C310.104 12.707 311.615 17.8097 311.602 24.8497C311.59 31.6097 310.061 36.607 307.016 39.8416C304.01 43.0363 299.427 44.6282 293.267 44.6174ZM293.277 39.0974C297.317 39.1045 300.279 38.0097 302.163 35.813C304.087 33.5764 305.053 29.9181 305.062 24.8381C305.072 19.4781 304.118 15.7365 302.202 13.6131C300.326 11.4498 297.368 10.3645 293.328 10.3574C289.328 10.3503 286.366 11.4251 284.442 13.5817C282.558 15.6984 281.612 19.4367 281.602 24.7967C281.593 29.8767 282.527 33.5384 284.403 35.7817C286.319 37.9851 289.277 39.0903 293.277 39.0974ZM317.946 44.0609L318.014 5.42096L335.774 5.4523C340.094 5.45992 343.232 6.58546 345.188 8.82892C347.184 11.0324 348.179 14.0342 348.172 17.8342C348.167 20.5542 347.483 22.873 346.12 24.7906C344.756 26.7082 342.794 28.0447 340.233 28.8002C340.952 29.3215 341.511 29.8825 341.91 30.4832C342.309 31.0839 342.707 31.8846 343.105 32.8853L347.946 44.1138L341.226 44.102L336.505 33.2936C336.066 32.2529 335.528 31.5119 334.889 31.0708C334.289 30.6297 333.25 30.4079 331.77 30.4053L324.51 30.3925L324.486 44.0724L317.946 44.0609ZM324.519 25.1125L333.999 25.1292C336.359 25.1334 338.22 24.5566 339.582 23.3991C340.944 22.2415 341.627 20.3827 341.632 17.8227C341.64 12.9827 339.305 10.5585 334.625 10.5503L324.545 10.5325L324.519 25.1125ZM354.567 44.1255L354.635 5.48558L361.355 5.49744L373.551 30.539L385.775 5.54054L392.495 5.5524L392.427 44.1923L385.947 44.1809L385.996 16.1609L375.518 37.5025L371.558 37.4955L361.096 16.117L361.047 44.137L354.567 44.1255Z" fill="#F5F5F5"/>
</svg>
